<svg version="1.1" id="Layer_1" xmlns:x="ns_extend;" xmlns:i="ns_ai;" xmlns:graph="ns_graphs;" xmlns="http://www.w3.org/2000/svg" xmlns:xlink="http://www.w3.org/1999/xlink" x="0px" y="0px" viewBox="0 0 56.9 56" style="enable-background:new 0 0 56.9 56;" xml:space="preserve">
 <style type="text/css">
  .st0{fill-rule:evenodd;clip-rule:evenodd;fill:#171214;}
 </style>
 <metadata>
  <sfw xmlns="ns_sfw;">
   <slices>
   </slices>
   <sliceSourceBounds bottomLeftOrigin="true" height="56" width="56.9" x="-205.8" y="1">
   </sliceSourceBounds>
  </sfw>
 </metadata>
 <g id="Symbols">
  <g id="Global_x2F_Modal" transform="translate(-72.000000, -24.000000)">
   <g id="Global_x2F_Logo_x2F_Full" transform="translate(72.000000, 24.000000)">
    <path id="Logo" class="st0" d="M34.2,0c0.3,0,0.5,0,0.8,0.1c6.2,1.5,11.7,5,15.7,10c4.1,5.1,6.3,11.3,6.3,17.9
				c0,6.6-2.2,12.8-6.3,17.9c-4,5-9.6,8.5-15.7,10C34.7,56,34.4,56,34.2,56c-1.8,0-3.3-1.5-3.3-3.3c0-1.6,1.1-3,2.6-3.3
				c5.5-1.3,10.4-4.8,13.4-9.7l0,0l0,0c0.4-0.7,0.4-1.6,0-2.4c-0.4-0.8-1.3-1.3-2.1-1.3c-0.4,0-0.7,0.1-1,0.2
				c-1.2,0.6-2.5,0.9-3.8,0.9c-4.8,0-8.8-3.8-9-8.6l0,0l0,0l0,0c0-0.1,0-0.3,0-0.4l0,0v-0.2c0-0.1,0-0.2,0-0.4l0,0l0,0l0,0
				c0.3-4.8,4.2-8.5,9-8.5c1.3,0,2.6,0.3,3.8,0.9c0.3,0.2,0.7,0.2,1,0.2c0.9,0,1.7-0.5,2.1-1.3c0.4-0.7,0.4-1.6,0-2.4l0,0l0-0.1
				c-3-4.8-7.9-8.4-13.4-9.7c-1.5-0.4-2.6-1.7-2.6-3.3C30.9,1.5,32.4,0,34.2,0z M22.8,0c1.8,0,3.3,1.5,3.3,3.3c0,1.6-1,3-2.6,3.3
				C18,8,13.1,11.5,10.1,16.3l0,0l0,0l0,0c-0.4,0.7-0.5,1.6,0,2.4c0.4,0.8,1.3,1.3,2.1,1.3c0.4,0,0.7-0.1,1-0.2
				c1.2-0.6,2.5-0.9,3.8-0.9c4.8,0,8.8,3.8,9,8.6l0,0l0,0l0,0c0,0.1,0,0.2,0,0.4l0,0l0,0.1l0,0c0,0,0,0,0,0.1v0.1c0,0.1,0,0.2,0,0.4
				l0,0l0,0l0,0c-0.3,4.8-4.2,8.6-9,8.6c-1.3,0-2.6-0.3-3.8-0.9c-0.3-0.2-0.7-0.2-1-0.2c-0.9,0-1.7,0.5-2.1,1.3
				c-0.4,0.7-0.4,1.6,0,2.4l0,0l0,0c3,4.8,7.9,8.4,13.4,9.7c1.5,0.4,2.6,1.7,2.6,3.3c0,1.8-1.5,3.3-3.3,3.3c-0.3,0-0.5,0-0.8-0.1
				c-6.2-1.5-11.7-5-15.7-10C2.2,40.8,0,34.6,0,28c0-6.6,2.2-12.8,6.3-17.9c4-5,9.6-8.5,15.7-10C22.2,0,22.5,0,22.8,0z">
    </path>
   </g>
  </g>
 </g>
</svg>